<svg width="37" height="32" viewBox="0 0 37 32" fill="none" xmlns="http://www.w3.org/2000/svg">
<path d="M18.5 30.0096L16.087 32C5.46957 22.9665 0 18.2201 0 12.4019C0 10.5646 0.643478 8.88038 1.6087 7.50239C1.6087 7.80861 1.6087 8.11483 1.6087 8.42105C1.6087 15.6172 7.88261 20.9761 18.5 30.0096ZM21.0739 23.7321C28.6348 17.1483 33.7826 12.8612 33.9435 8.42105C33.9435 5.35885 31.5304 3.0622 28.313 3.0622C25.7391 3.0622 23.3261 4.5933 22.5217 6.73684H19.4652C18.5 4.5933 16.087 3.0622 13.6739 3.0622C10.4565 3.0622 8.04348 5.35885 8.04348 8.42105C8.04348 12.8612 13.0304 17.1483 20.7522 23.7321L20.913 23.8852M28.1522 0C33.1391 0 37 3.67464 37 8.42105C37 14.0861 31.5304 18.8325 20.913 28.0191C10.2957 18.9856 4.82609 14.2392 4.82609 8.42105C4.82609 3.67464 8.68696 0 13.6739 0C16.4087 0 19.1435 1.22488 20.913 3.21531C22.6826 1.22488 25.4174 0 28.1522 0Z" fill="#FF5151"/>
</svg>
